<svg id="call_black_24dp" xmlns="http://www.w3.org/2000/svg" width="28" height="28" viewBox="0 0 28 28">
  <path id="Path_36" data-name="Path 36" d="M0,0H28V28H0Z" fill="none"/>
  <path id="Path_37" data-name="Path 37" d="M23.79,18.131a13.986,13.986,0,0,1-4.314-.684,1.194,1.194,0,0,0-1.234.293l-1.919,2.408A18.557,18.557,0,0,1,7.9,11.8l2.383-2.029a1.247,1.247,0,0,0,.293-1.247A13.631,13.631,0,0,1,9.893,4.21,1.221,1.221,0,0,0,8.683,3H4.454C3.794,3,3,3.293,3,4.21A20.964,20.964,0,0,0,23.79,25,1.282,1.282,0,0,0,25,23.558V19.341A1.221,1.221,0,0,0,23.79,18.131Z" transform="translate(0)" fill="#fff"/>
</svg>
