<svg xmlns="http://www.w3.org/2000/svg" width="20" height="20" viewBox="0 0 20 20">
  <path id="Path_43" data-name="Path 43" d="M18.426,23.58H9.214a5.351,5.351,0,0,1-5.394-5.3v-9.4a5.351,5.351,0,0,1,5.394-5.3h9.212a5.351,5.351,0,0,1,5.394,5.3v9.4a5.351,5.351,0,0,1-5.394,5.3ZM9.214,5.408a3.5,3.5,0,0,0-3.53,3.47v9.4a3.5,3.5,0,0,0,3.53,3.47h9.212a3.5,3.5,0,0,0,3.53-3.47v-9.4a3.5,3.5,0,0,0-3.53-3.47ZM13.82,18.33a4.751,4.751,0,1,1,4.844-4.75A4.8,4.8,0,0,1,13.82,18.33Zm0-7.673A2.923,2.923,0,1,0,16.8,13.58a2.952,2.952,0,0,0-2.98-2.923Zm4-2.415a1.111,1.111,0,0,0,.694,1.032,1.149,1.149,0,0,0,1.238-.236A1.1,1.1,0,0,0,20,7.827a1.137,1.137,0,0,0-2.181.4Z" transform="translate(-3.82 -3.58)"/>
</svg>
