<svg xmlns="http://www.w3.org/2000/svg" width="17.9" height="19.9" viewBox="0 0 17.9 19.9">
  <g id="share-alt" transform="translate(-3 -2)">
    <path id="Path_11" data-name="Path 11" d="M18,9a2.792,2.792,0,0,0-2,.8L8.9,5.7A1.7,1.7,0,0,0,9,5,2.946,2.946,0,0,0,6,2,2.946,2.946,0,0,0,3,5,2.946,2.946,0,0,0,6,8a2.792,2.792,0,0,0,2-.8l7.1,4.1a1.7,1.7,0,0,0-.1.7,1.7,1.7,0,0,0,.1.7L8,16.9a2.792,2.792,0,0,0-2-.8A2.9,2.9,0,1,0,8.9,19a1.952,1.952,0,0,0-.1-.7l7.1-4.2a2.792,2.792,0,0,0,2,.8,2.946,2.946,0,0,0,3-3A2.783,2.783,0,0,0,18,9Z" fill="#fff"/>
  </g>
</svg>
