<svg id="Tiktok" xmlns="http://www.w3.org/2000/svg" width="20" height="20" viewBox="0 0 20 20">
  <rect id="Rectangle_24" data-name="Rectangle 24" width="20" height="20" rx="1.68"/>
  <path id="Path_20" data-name="Path 20" d="M12.356,15.785A2.169,2.169,0,0,0,11.2,19.777a2.138,2.138,0,0,1-.338-1.162,2.169,2.169,0,0,1,2.162-2.169l.562.038V13.7h-.662v2.146Z" transform="translate(-4.663 -5.469)" fill="#ff2f5b"/>
  <path id="Path_21" data-name="Path 21" d="M21.042,9.187a5.192,5.192,0,0,1-.908-2.415V6.71H19.58a4.3,4.3,0,0,0,1.462,2.477Z" transform="translate(-6.826 -3.856)" fill="#ff2f5b"/>
  <path id="Path_22" data-name="Path 22" d="M20.556,11.51v2.185A5.915,5.915,0,0,1,17.01,12.6v4.846a4.946,4.946,0,0,1-4.954,4.946A4.885,4.885,0,0,1,8.91,21.256a4.938,4.938,0,0,0,8.762-3.146V13.264a5.892,5.892,0,0,0,3.546,1.085V11.572a3.577,3.577,0,0,1-.662-.062Z" transform="translate(-4.364 -4.964)" fill="#ff2f5b"/>
  <path id="Path_23" data-name="Path 23" d="M23.457,11.145v-.6A3.185,3.185,0,0,1,21.48,9.93,3.077,3.077,0,0,0,23.457,11.145Z" transform="translate(-7.265 -4.599)" fill="#25f4ee"/>
  <path id="Path_24" data-name="Path 24" d="M13.323,18.975a2.169,2.169,0,0,0,2.169-2.169V6.514h2.223c-.062-.269-.092-.492-.108-.6V5.86H14.831V16.145A2.162,2.162,0,0,1,11.5,17.968a2.177,2.177,0,0,0,1.823,1.008Z" transform="translate(-4.962 -3.66)" fill="#25f4ee"/>
  <path id="Path_25" data-name="Path 25" d="M12.1,13.478V12.84H11.54a4.946,4.946,0,0,0-3.146,8.723A4.931,4.931,0,0,1,12.1,13.478Z" transform="translate(-3.84 -5.271)" fill="#25f4ee"/>
  <path id="Path_26" data-name="Path 26" d="M16.67,16.341V11.495a5.915,5.915,0,0,0,3.546,1.092V10.4a3.077,3.077,0,0,1-1.977-1.215A4.3,4.3,0,0,1,16.778,6.71H14.555V17a2.162,2.162,0,0,1-3.992,1.162,2.169,2.169,0,0,1,1.154-3.992l.569.038V12.064a4.931,4.931,0,0,0-3.708,8.085,4.885,4.885,0,0,0,3.138,1.138,4.946,4.946,0,0,0,4.954-4.946Z" transform="translate(-4.024 -3.856)" fill="#fff"/>
</svg>
