<svg xmlns="http://www.w3.org/2000/svg" width="16" height="16" viewBox="0 0 16 16">
  <path id="account_circle_FILL0_wght400_GRAD0_opsz48" d="M6.84,16.5a11.519,11.519,0,0,1,2.5-1.35A7.442,7.442,0,0,1,12,14.68a7.524,7.524,0,0,1,2.67.47,11.427,11.427,0,0,1,2.51,1.35,7.021,7.021,0,0,0,1.25-2.18A7.228,7.228,0,0,0,18.8,12,6.663,6.663,0,0,0,12,5.2,6.663,6.663,0,0,0,5.2,12a7.055,7.055,0,0,0,.38,2.32A7.2,7.2,0,0,0,6.84,16.5ZM12,12.6A2.7,2.7,0,0,1,9.26,9.86,2.7,2.7,0,0,1,12,7.12a2.7,2.7,0,0,1,2.74,2.74A2.7,2.7,0,0,1,12,12.6ZM12,20a7.741,7.741,0,0,1-3.1-.63A8.06,8.06,0,0,1,4.63,15.1a7.967,7.967,0,0,1,0-6.21A8.087,8.087,0,0,1,8.9,4.63a7.967,7.967,0,0,1,6.21,0,8.114,8.114,0,0,1,4.26,4.26,7.967,7.967,0,0,1,0,6.21,8.087,8.087,0,0,1-4.26,4.27A7.719,7.719,0,0,1,12,20Zm0-1.2a7.335,7.335,0,0,0,2.15-.32,6.389,6.389,0,0,0,2.07-1.12,8.7,8.7,0,0,0-2.08-1.1,6.216,6.216,0,0,0-4.28,0,8.7,8.7,0,0,0-2.08,1.1,6.389,6.389,0,0,0,2.07,1.12A7.335,7.335,0,0,0,12,18.8Zm0-7.4a1.473,1.473,0,1,0-1.11-.43A1.5,1.5,0,0,0,12,11.4Zm0-1.54Zm0,7.48Z" transform="translate(-4 -4)"/>
</svg>
