<svg xmlns="http://www.w3.org/2000/svg" width="28" height="28" viewBox="0 0 28 28">
  <g id="Group_47" data-name="Group 47" transform="translate(-213.75 -965.74)">
    <path id="Path_27" data-name="Path 27" d="M20.737,34.74a13.887,13.887,0,0,1-6.82-1.771L6.75,34.725,9,28.322A13.983,13.983,0,1,1,20.737,34.74Zm-6.457-4.207.393.242a11.575,11.575,0,0,0,6.049,1.7A11.714,11.714,0,1,0,9.033,20.755a11.57,11.57,0,0,0,2.162,6.8l.333.469-1.225,3.5Z" transform="translate(207 959)" fill="#fff"/>
    <path id="Path_28" data-name="Path 28" d="M16.179,15.518a.3.3,0,0,0,0-.272,24.682,24.682,0,0,0-1.391-3.375,3.4,3.4,0,0,0-1.089-.076,1.8,1.8,0,0,0-.968.378,3.756,3.756,0,0,0-.983,4.359c1.149,3.254,5.383,7.386,9.421,7.961A3.191,3.191,0,0,0,25.1,21.36a.288.288,0,0,0-.136-.257,15.508,15.508,0,0,0-3.221-1.513.212.212,0,0,0-.242,0c-.242.257-.847.984-1.406,1.71a.151.151,0,0,1-.151,0,8.258,8.258,0,0,1-5.051-4.329.167.167,0,0,1,0-.166C15.12,16.774,15.65,16.093,16.179,15.518Z" transform="translate(209.396 961.588)" fill="#fff"/>
  </g>
</svg>
