<svg id="Youtube" xmlns="http://www.w3.org/2000/svg" width="20" height="13.998" viewBox="0 0 20 13.998">
  <path id="Path_18" data-name="Path 18" d="M20.327,20.582a84.823,84.823,0,0,1-14.659,0A2.746,2.746,0,0,1,3.2,18.09a43.615,43.615,0,0,1,0-8.383A2.738,2.738,0,0,1,5.668,7.216a85.6,85.6,0,0,1,14.659,0,2.753,2.753,0,0,1,2.469,2.5,43.614,43.614,0,0,1,0,8.383,2.738,2.738,0,0,1-2.469,2.484Z" transform="translate(-2.998 -6.901)" fill="#202020"/>
  <path id="Path_19" data-name="Path 19" d="M13.4,12.12V19.9l6.75-3.89Z" transform="translate(-6.242 -9.006)" fill="#fff"/>
</svg>
